<svg xmlns="http://www.w3.org/2000/svg" xmlns:xlink="http://www.w3.org/1999/xlink" width="113.083" height="84.373" viewBox="0 0 113.083 84.373">
  <defs>
    <clipPath id="clip-path">
      <path id="Path_6966" data-name="Path 6966" d="M170.74,242.726a3.137,3.137,0,1,0,3.137-3.137,3.136,3.136,0,0,0-3.137,3.137m32.913-14.469a2.645,2.645,0,1,0,2.645-2.645,2.645,2.645,0,0,0-2.645,2.645m-23.646-.242a8.09,8.09,0,1,0,8.09-8.09,8.09,8.09,0,0,0-8.09,8.09m37.625-5.973a2.6,2.6,0,1,0,2.6-2.6,2.6,2.6,0,0,0-2.6,2.6M167,219.944a4.085,4.085,0,1,0,4.085-4.085A4.086,4.086,0,0,0,167,219.944m36.731-5.16a2.984,2.984,0,1,0,2.984-2.984,2.985,2.985,0,0,0-2.984,2.984m-50.033-1.47a3.682,3.682,0,1,0,3.681-3.681,3.681,3.681,0,0,0-3.681,3.681m25.727-1.781a2.881,2.881,0,1,0,2.881-2.881,2.88,2.88,0,0,0-2.881,2.881m11.115.993a3.879,3.879,0,1,0,3.879-3.88,3.879,3.879,0,0,0-3.879,3.88m28.625-1.216a6.125,6.125,0,1,0,6.125-6.125,6.124,6.124,0,0,0-6.125,6.125m-54-4.56a2,2,0,1,0,2-2,2,2,0,0,0-2,2m-31.075,1.664a6.124,6.124,0,1,0,6.125-6.125,6.124,6.124,0,0,0-6.125,6.125m-13.6-4.283a2.7,2.7,0,1,0,2.7-2.7,2.7,2.7,0,0,0-2.7,2.7m27.686-4.005a1.889,1.889,0,1,0,1.889-1.889,1.889,1.889,0,0,0-1.889,1.889m62.947-2.137a3.782,3.782,0,1,0,3.783-3.782,3.782,3.782,0,0,0-3.783,3.782m-36-.392a4.42,4.42,0,1,0,4.421-4.42,4.421,4.421,0,0,0-4.421,4.42m49.913-4.1a4.269,4.269,0,1,0,4.269-4.269,4.269,4.269,0,0,0-4.269,4.269m-84.659-.635a3.73,3.73,0,1,0,3.73-3.73,3.73,3.73,0,0,0-3.73,3.73m49.595,3.549a7.382,7.382,0,1,0,7.382-7.382,7.382,7.382,0,0,0-7.382,7.382m-37.183-3.1a7.8,7.8,0,1,0,7.8-7.8,7.8,7.8,0,0,0-7.8,7.8M123.4,190.819a5.457,5.457,0,1,0,5.458-5.457,5.457,5.457,0,0,0-5.458,5.457m83.515-5.773a2.463,2.463,0,1,0,2.463-2.463,2.463,2.463,0,0,0-2.463,2.463m-50.332-3.8a2.342,2.342,0,1,0,2.342-2.342,2.341,2.341,0,0,0-2.342,2.342m61.406.256a2.613,2.613,0,1,0,2.613-2.613,2.613,2.613,0,0,0-2.613,2.613m-41.532-.389a4.161,4.161,0,1,0,4.161-4.161,4.161,4.161,0,0,0-4.161,4.161m-32.413-1.871a3.522,3.522,0,1,0,3.522-3.522,3.522,3.522,0,0,0-3.522,3.522M133.3,177.831a2.864,2.864,0,1,0,2.864-2.864,2.864,2.864,0,0,0-2.864,2.864m60.594-1.495a2.21,2.21,0,1,0,2.21-2.21,2.21,2.21,0,0,0-2.21,2.21m9.46-3.4a5.387,5.387,0,1,0,5.387-5.388,5.387,5.387,0,0,0-5.387,5.388M151.6,169.9a2.851,2.851,0,1,0,2.851-2.851A2.851,2.851,0,0,0,151.6,169.9m31.092.187a3.744,3.744,0,1,0,3.744-3.743,3.744,3.744,0,0,0-3.744,3.743m-22.365-2.474a6.125,6.125,0,1,0,6.125-6.124,6.125,6.125,0,0,0-6.125,6.124" transform="translate(-120.488 -161.49)" fill="none"/>
    </clipPath>
    <linearGradient id="linear-gradient" x1="-0.044" y1="1.072" x2="-0.043" y2="1.072" gradientUnits="objectBoundingBox">
      <stop offset="0" stop-color="#f8b916"/>
      <stop offset="1" stop-color="#ed7f22"/>
    </linearGradient>
  </defs>
  <g id="Group_3999" data-name="Group 3999" transform="translate(-120.488 -161.49)">
    <path id="Path_6965" data-name="Path 6965" d="M233.793,290.828l.421-13.474.031-.976.858.461,12.949,6.958,4.635-9.823-10.161-13.027-.554-.711.869-.242,15.557-4.338.322,1.163-14.689,4.1,9.836,12.611.229.294-.158.335-5.065,10.734-.272.575-.56-.3-12.651-6.8-.39,12.5Zm15.088-46.166-11.093,3.507L226.007,259.3l-2.893,15.922-.1.542-.542-.045-11.189-.917,5.48,15.606-1.14.4-5.515-15.706L199.828,282.8l2.712,22.5-1.2.141L198.587,282.6l-.041-.344.279-.209,11.22-8.412.658-.494.143.405,11.18.918,2.83-15.579.035-.2.144-.136,11.823-11.166-.581-11.088-11.917,3.209-.258.069-.225-.145-9.667-6.247.652-1.017,9.443,6.1,12.38-3.334.72-.194.039.747.594,11.332,10.479-3.313Zm-65.767-12.394,4.47,11.341-1.125.44-4.47-11.341Zm-11.662,23.684L156.878,254l.156-1.2,14.714,1.966,3.161-12.433-10.718-1.323.147-1.2,11.4,1.407-.073.6.586.149-3.275,12.887,15.723.425.366.01.034.068,17.985,4.074,1.011-15.5-13.958-13.3.833-.875,14.163,13.495-.417.437.6.038-1.076,16.486-.6-.038-.132.589-17.728-4.016,6.025,12.315-.541.265.336.5-9.781,6.564-.233.157-.268-.077-17.167-4.9-17.01-4.278.293-1.173,16.442,4.135ZM177.7,263.1l-5.2-6.34-3.455,13.825,16.337,4.663,9.111-6.115L188.3,256.482l-14.8-.4,5.122,6.247Z" transform="translate(-28.098 -62.587)" fill="#153f44"/>
    <g id="Group_3923" data-name="Group 3923" transform="translate(120.488 161.49)">
      <g id="Group_3922" data-name="Group 3922" transform="translate(0 0)" clip-path="url(#clip-path)">
        <rect id="Rectangle_158" data-name="Rectangle 158" width="122.378" height="97.314" transform="translate(-10.037 1.211) rotate(-6.882)" fill="url(#linear-gradient)"/>
      </g>
    </g>
  </g>
</svg>
