<svg height="180" viewBox="0 0 330 180" width="330" xmlns="http://www.w3.org/2000/svg" xmlns:xlink="http://www.w3.org/1999/xlink"><clipPath id="a"><path d="m6.646 0 65.554 4.584-6.641 95.044-65.559-4.585z"/></clipPath><clipPath id="b"><path d="m6.646 0 65.554 4.584-6.641 95.043-65.559-4.584z"/></clipPath><clipPath id="c"><path d="m2190.822 979.295h-21.155a1.234 1.234 0 0 1 -1.167-1.295v-12.51a1.234 1.234 0 0 1 1.168-1.29h21.155a1.234 1.234 0 0 1 1.167 1.29v12.51a1.234 1.234 0 0 1 -1.168 1.295z" transform="translate(-2168.5 -964.2)"/></clipPath><path d="m0 0h23.618v23.618h-23.618z" fill="none" transform="translate(124.49 45.48)"/><g clip-path="url(#a)" transform="translate(70.464 80.353)"><g clip-path="url(#b)"><path d="m.9 1.476-.083.129a2.643 2.643 0 0 0 -.4 1.144 3.061 3.061 0 0 0 .12 1.223 3.65 3.65 0 0 0 .6 1.158 4.082 4.082 0 0 0 1.036.949l3.7 2.377a4.185 4.185 0 0 0 1.326.562 3.742 3.742 0 0 0 1.335.067 3.139 3.139 0 0 0 1.192-.409 2.7 2.7 0 0 0 1.309-2.036 3.139 3.139 0 0 0 -.135-1.253 3.743 3.743 0 0 0 -.614-1.187 4.185 4.185 0 0 0 -1.062-.973l-3.697-2.378a4.081 4.081 0 0 0 -1.293-.549 3.65 3.65 0 0 0 -1.3-.065 3.061 3.061 0 0 0 -1.162.4 2.643 2.643 0 0 0 -.872.841" fill="#483210" transform="translate(6.036 32.234)"/><path d="m40.523 64.258-25.408-1.777-1.1-7.481c-.636-.552-1.513-1.382-2.508-2.4s-2.109-2.22-3.219-3.52-2.216-2.7-3.2-4.1a27.248 27.248 0 0 1 -2.441-4.132l-.032-.071-.032-.07-.031-.07-.031-.07-.021-.056-.024-.056-.022-.055-.023-.056-.053-.128-.051-.127-.049-.126-.047-.126a10.212 10.212 0 0 1 -.331-1.045 7 7 0 0 1 -.177-.981 4.78 4.78 0 0 1 -.012-.906 3.431 3.431 0 0 1 .169-.818 2.893 2.893 0 0 1 .109-.275 2.772 2.772 0 0 1 .3-.507 2.85 2.85 0 0 1 .193-.231 8.571 8.571 0 0 0 .577-.715c.222-.3.472-.658.742-1.061s.561-.849.865-1.327.622-.987.947-1.514c.469-.762.952-1.56 1.428-2.357s.943-1.59 1.383-2.341.85-1.46 1.211-2.086.672-1.169.912-1.59l.224-.394.167-.294.1-.184.036-.064.138-.21.392-.595.612-.926c.237-.358.506-.762.8-1.2l.319-.479.337-.5.353-.528.368-.549.657-.976.688-1.019.712-1.049.729-1.069.493-.718.495-.718.495-.715.492-.708.256-.366.255-.363.253-.359.25-.355.378-.533.371-.52.364-.505.355-.489.04-.055.04-.055.04-.055.04-.054q.212-.29.417-.565t.4-.534q.195-.258.38-.5t.358-.461l.239-.3q.116-.145.226-.28t.213-.257q.1-.123.2-.233c.145-.166.278-.312.4-.433a3.782 3.782 0 0 1 .315-.293.8.8 0 0 1 .224-.14c.059-.02.1-.012.126.027a2.711 2.711 0 0 0 .367.393c.185.175.43.391.723.643s.633.541 1.009.859.79.667 1.228 1.039l.08.067.08.068.081.069.081.07.064.055.064.055.064.055.065.055.121.1.121.1.122.105.123.106c.849.735 1.75 1.534 2.636 2.362s1.761 1.689 2.548 2.539a22.691 22.691 0 0 1 2.041 2.508 7.68 7.68 0 0 1 1.135 2.27 41.473 41.473 0 0 1 .782 7.346c.143 3.189.18 6.9.152 10.488s-.124 7.048-.246 9.735a40.284 40.284 0 0 1 -.411 5.086 8.42 8.42 0 0 0 .04 2.156c.1 1.09.28 2.5.5 4.083s.5 3.334.782 5.107.587 3.566.873 5.229" fill="#615c58" transform="translate(18.206 25.995)"/><path d="m17.443 12.938.1-.149a3.554 3.554 0 0 0 -.937-4.942l-10.225-6.968a3.647 3.647 0 1 0 -4.107 6.028l10.226 6.968a3.554 3.554 0 0 0 4.942-.937" fill="#483210" transform="translate(4.116 22.688)"/><path d="m40.176 5.552.924 56.173a3.338 3.338 0 0 1 -3.286 3.4l-29.362.475a3.339 3.339 0 0 1 -3.4-3.286l-.922-56.168a3.339 3.339 0 0 1 3.286-3.4l29.364-.479a3.338 3.338 0 0 1 3.4 3.286" fill="#ebf3fa" transform="translate(6.989 .762)"/><path d="m41.968 62.165-.047-2.853-.078-4.712-.033-2.015-.031-1.853-.057-3.485-.042-2.607-.223-13.526-.022-1.314-.058-3.541v-.274l-.088-5.34-.135-8.153-.04-2.469-.063-3.86v-.172a3.761 3.761 0 0 0 -3.822-3.7l-17.738.292-1 .016-10.634.18a3.761 3.761 0 0 0 -3.699 3.821l.279 16.98.107 6.455.04 2.471v.016l.042 2.552.081 4.884.375 22.814a3.762 3.762 0 0 0 3.823 3.7l5.344-.088 4.2-.069 13.551-.224h.286.01l5.969-.1a3.777 3.777 0 0 0 .676-.072 3.747 3.747 0 0 0 1.737-.858 3.782 3.782 0 0 0 .951-1.279 3.741 3.741 0 0 0 .335-1.613m-9.522 3.079-14.331.236-4.207.07-5.015.083a2.922 2.922 0 0 1 -2.97-2.874l-.364-22.263-.088-5.363-.034-2.049v-.053l-.049-2.935-.1-5.936-.284-17.577a2.922 2.922 0 0 1 2.87-2.97l10.5-.173 1-.016 17.854-.294a2.922 2.922 0 0 1 2.976 2.873v.1l.106 6.395.058 3.526.082 4.995.087 5.251v.277l.054 3.263.01.571.228 13.807.041 2.524.091 5.528.057 3.475.049 2.969.011.645.047 2.849a2.926 2.926 0 0 1 -.018.38 2.89 2.89 0 0 1 -.328 1.046 2.921 2.921 0 0 1 -2.528 1.543z" fill="#163560" transform="translate(6.542 .315)"/><path d="m30.381 45.109-27.5 2.41a.51.51 0 0 1 -.338-.094.925.925 0 0 1 -.272-.314 1.759 1.759 0 0 1 -.178-.484 2.572 2.572 0 0 1 -.056-.605l.857-40a2.766 2.766 0 0 1 .082-.617 2.183 2.183 0 0 1 .2-.517 1.271 1.271 0 0 1 .286-.363.624.624 0 0 1 .338-.153l8.734-.765 1.01-.089 2.94-.257.619-.055.631-.055.254-.022 13.312-1.165a.51.51 0 0 1 .338.094.924.924 0 0 1 .271.313 1.76 1.76 0 0 1 .178.483 2.574 2.574 0 0 1 .056.6l-.665 31.024-.005.254-.088 4.111-.044 2.021-.055 2.591a2.775 2.775 0 0 1 -.082.617 2.185 2.185 0 0 1 -.2.517 1.267 1.267 0 0 1 -.286.362.621.621 0 0 1 -.343.154" fill="#ff6100" transform="translate(11.754 5.53)"/><path d="m2.263 9.178h-.014-.014-.014l-.014-.006a1.535 1.535 0 0 1 -.165-.106 2.973 2.973 0 0 1 -.368-.316 3.84 3.84 0 0 1 -.464-.567 4.656 4.656 0 0 1 -.454-.861 6.157 6.157 0 0 1 -.408-1.787 9.484 9.484 0 0 1 .038-1.882 14.131 14.131 0 0 1 .342-1.844c.149-.592.325-1.155.5-1.663a.14.14 0 1 1 .272.092 14.3 14.3 0 0 0 -.9 4.248 6.678 6.678 0 0 0 .4 2.657 4.075 4.075 0 0 0 .855 1.373 2.287 2.287 0 0 0 .485.4.14.14 0 0 1 -.075.264" fill="#e8945b" transform="translate(37.425 65.932)"/><path d="m0 .247 9.193-.247.014.531-9.193.247z" fill="#163560" transform="translate(17.888 12.363)"/><path d="m0 .31 11.545-.31.014.531-11.545.31z" fill="#163560" transform="translate(17.927 13.774)"/><g fill="#f77d48"><path d="m.27 4.32a3.984 3.984 0 1 1 .33 1.551 3.984 3.984 0 0 1 -.33-1.551" opacity=".4" transform="translate(13.958 55.013)"/><path d="m.27 4.32a3.984 3.984 0 1 1 .33 1.551 3.984 3.984 0 0 1 -.33-1.551" opacity=".4" transform="translate(23.174 55.013)"/><path d="m.27 4.32a3.984 3.984 0 1 1 .33 1.551 3.984 3.984 0 0 1 -.33-1.551" opacity=".4" transform="translate(32.39 55.013)"/></g><path d="m32.96 10.838s-.666-.348-1.767-.928-2.635-1.391-4.373-2.317-3.677-1.968-5.588-3.007-3.792-2.077-5.412-3a2.885 2.885 0 0 0 -.635-.207c-.295-.072-.658-.144-1.05-.214s-.811-.137-1.217-.2-.8-.113-1.138-.156c-1.29-.161-2.513-.3-3.623-.4s-2.106-.166-2.944-.209a18.757 18.757 0 0 0 -1.988 0c-.473.033-.741.1-.758.212a3.927 3.927 0 0 0 .92 3.245 8.735 8.735 0 0 0 2.913 2.099 27.409 27.409 0 0 0 3.325 1.293 12.578 12.578 0 0 1 2.143.809 41.524 41.524 0 0 1 4.115 3.156 42.671 42.671 0 0 1 3.941 3.852 18.211 18.211 0 0 1 2.687 3.752 3.189 3.189 0 0 1 .355 2.855c-.143.262-.3.522-.473.778s-.344.508-.515.755-.339.487-.492.721a7.829 7.829 0 0 0 -.4.675 21.89 21.89 0 0 0 -1.941 4.647 4.05 4.05 0 0 0 .236 3.021 6.556 6.556 0 0 0 2.561 2.291 54.945 54.945 0 0 0 5.034 2.458 6.245 6.245 0 0 0 4.53.465 6.288 6.288 0 0 0 2.953-2.129 11.566 11.566 0 0 0 1.6-2.735 11.221 11.221 0 0 0 .484-1.354l-1.933-8.037z" fill="#635949" transform="translate(19.928 36.578)"/><path d="m35.941 20.144q-2.188-.119-4.361-.231t-4.318-.219q-2.146-.107-4.262-.208t-4.191-.2h-.078-.078-.078-.078l-.729-.034-.726-.033-.724-.033-.721-.033h-.079-.078-.078-.078l-1.184-.083-1.171-.053-1.162-.053-1.152-.052-1.129-.051-1.116-.05-1.109-.05-1.1-.05h-.079-.078-.078-.078l-1.414-.065-1.394-.064-1.374-.063-1.352-.076h-.079-.078-.078-.078l.494-7.069q.351-.32.718-.626t.748-.6q.381-.292.775-.57t.8-.543q.591-.387 1.205-.746t1.246-.692q.632-.333 1.278-.64t1.3-.591q.966-.417 1.948-.783t1.963-.686q.981-.32 1.954-.6t1.922-.511q.423-.105.841-.2t.827-.188q.41-.09.812-.173t.795-.16c.871-.169 1.706-.314 2.492-.438s1.522-.227 2.2-.312 1.281-.165 1.821-.215 1-.092 1.369-.12l.46-.033.338-.021.209-.011h.071z" fill="#fc824d" transform="translate(29.673 78.69)"/></g></g><g fill="#fff" opacity=".65" transform="translate(86.051 37.218)"><path d="m310.581 200.938a4.8 4.8 0 0 0 2.269-2.851 14.828 14.828 0 1 0 -6.971-5.6 4.834 4.834 0 0 0 1.029 8.889 4.8 4.8 0 0 0 3.673-.441z" opacity=".29" transform="translate(-303.267 -169.33)"/><path d="m309.746 200.147a5.026 5.026 0 0 0 .488-.313 8.167 8.167 0 0 1 5.593-1.594 14.939 14.939 0 1 0 -12.375-9.32 4.843 4.843 0 0 1 -.341 4.325 4.949 4.949 0 0 0 4.218 7.538 4.943 4.943 0 0 0 2.417-.636zm19.7-24.923a14.606 14.606 0 0 1 -17.461 21.747l-.172-.068-.05.178a4.612 4.612 0 1 1 -6.615-5.311l.163-.087-.1-.153a14.606 14.606 0 1 1 24.238-16.306z" transform="translate(-302.377 -168.442)"/><ellipse cx="8.857" cy="14.946" rx="1.731" ry="1.731"/><ellipse cx="14.761" cy="14.946" rx="1.731" ry="1.731"/><ellipse cx="20.665" cy="14.946" rx="1.731" ry="1.731"/></g><path d="m.142 22.9h-.061l.149-.56a14.834 14.834 0 0 1 .61-2.317l4.355-16.556a2.806 2.806 0 0 1 2.285-2.06l8.882-1.374a2.806 2.806 0 0 1 2.9 1.449l8.441 15.766a14.832 14.832 0 0 1 .722 1.349l.287.535-.045.006a14.923 14.923 0 1 1 -28.525 3.762z" fill="#ffc34a" transform="matrix(-.966 .259 -.259 -.966 82.599615 70.720392)"/><g fill="#fff"><path d="m17.681 0a3.054 3.054 0 0 0 -.467.036l-9.284 1.436a3.063 3.063 0 0 0 -2.495 2.249l-4.553 17.306a15.6 15.6 0 0 0 -.639 2.433l-.115.757a15.733 15.733 0 0 0 18.01 17.547l-.038-.264a15.477 15.477 0 0 1 -17.69-17.418l.09-.566a15.5 15.5 0 0 1 .633-2.416l4.555-17.312a2.8 2.8 0 0 1 2.282-2.057l9.284-1.436a2.806 2.806 0 0 1 2.9 1.447l.231-.124a3.07 3.07 0 0 0 -2.704-1.618z" transform="matrix(-.966 .259 -.259 -.966 83.61899 71.53326)"/><path d="m0 0h16.426v.339h-16.426z" transform="matrix(-.57541485239 -.81800657064 .81800657064 -.57541485239 68.210975 70.858908)"/><path d="m0 0h.339v16.427h-.339z" transform="matrix(-.97643845383 .21634449858 -.21634449858 -.97643845383 71.461964 69.425021)"/><path d="m12.184 0-11.897 1.844a.339.339 0 1 0 .1.67l11.9-1.84a.339.339 0 1 0 -.1-.67z" transform="matrix(-.966 .259 -.259 -.966 81.100348 80.336768)"/><path d="m12.184 0-11.897 1.845a.339.339 0 1 0 .1.67l11.9-1.84a.339.339 0 1 0 -.1-.67z" transform="matrix(-.966 .259 -.259 -.966 80.151225 77.974681)"/><path d="m12.184 0-11.897 1.845a.339.339 0 1 0 .1.67l11.9-1.84a.339.339 0 1 0 -.1-.67z" transform="matrix(-.966 .259 -.259 -.966 79.202361 75.61356)"/><path d="m3.843.074c2.357-.365 4.476.654 4.727 2.277l-8.546 1.322c-.25-1.623 1.459-3.234 3.819-3.599z" transform="matrix(-.966 .259 -.259 -.966 79.54499 82.348365)"/><path d="m4.935.957a2.089 2.089 0 0 0 -1.158.749c-.075.088-.149.18-.223.271a2.648 2.648 0 0 1 -.874.813c-.78.363-1.694-.144-2.488-.69l-.192.281c.873.6 1.891 1.151 2.824.716a2.939 2.939 0 0 0 .995-.908c.071-.089.143-.178.216-.263.239-.28.717-.733 1.228-.628a1.652 1.652 0 0 1 .589.312 3.159 3.159 0 0 0 .417.263 1.661 1.661 0 0 0 1.823-.258 3.279 3.279 0 0 0 .247-.262 1.2 1.2 0 0 1 .484-.4 1.2 1.2 0 0 1 .88.237 1.753 1.753 0 0 0 1.026.307l.037-.005c.668-.1.976-.842 1.15-1.393l-.322-.099c-.237.749-.525 1.122-.9 1.164a1.491 1.491 0 0 1 -.828-.269 1.454 1.454 0 0 0 -1.145-.262 1.466 1.466 0 0 0 -.636.5 2.976 2.976 0 0 1 -.221.235 1.332 1.332 0 0 1 -1.443.2 2.865 2.865 0 0 1 -.372-.236 1.927 1.927 0 0 0 -.718-.367 1.119 1.119 0 0 0 -.396-.008z" transform="matrix(-.966 .259 -.259 -.966 68.216211 52.391431)"/></g><path d="m81.7 261.167s2.511-10.438 13.7-6.144 12.46 26.154 20.252 38.013 23.93 6.345 26.468-3.445 2.538-25.2 2.538-25.2" style="fill:none;stroke:#fff;stroke-linecap:round;stroke-linejoin:round;stroke-width:3;opacity:.39" transform="translate(26.023 -183.272)"/><g transform="translate(154.087 14.009)"><g opacity=".39" transform="translate(.177 13.233)"><path d="m2387.607 1356.794h-38.907l7.534-16.649 1.1-2.445h21.634l3.039 6.712z" fill="#fff" opacity=".51" stroke="#d27b00" stroke-width="4" transform="translate(-2316.347 -1265.764)"/><path d="m2135.459 718.336h-91.582a6.077 6.077 0 0 1 -6.077-6.077v-59.782a6.077 6.077 0 0 1 6.077-6.077h91.582a6.078 6.078 0 0 1 6.077 6.077v59.771a6.087 6.087 0 0 1 -6.077 6.088z" fill="#fff" stroke="#d5b900" stroke-width="4" transform="translate(-2037.8 -646.4)"/><path d="m2368.648 1203.116h-36.712a3.233 3.233 0 0 1 -3.236-3.236v-4.443a3.233 3.233 0 0 1 3.236-3.237h36.712a3.233 3.233 0 0 1 3.237 3.237v4.443a3.24 3.24 0 0 1 -3.237 3.236z" fill="#d27b00" transform="translate(-2298.429 -1135.405)"/><g fill="#fff"><path d="m2589.09 1232.762h-2.477a1.114 1.114 0 0 1 -1.113-1.114v-1.935a1.115 1.115 0 0 1 1.113-1.114h2.477a1.115 1.115 0 0 1 1.114 1.114v1.935a1.115 1.115 0 0 1 -1.114 1.114z" transform="translate(-2528.507 -1168.017)"/><path d="m2638.921 1234.787-.916-.583a.872.872 0 0 1 -.406-.739v-.874a.872.872 0 0 1 .406-.739l.916-.583a.326.326 0 0 1 .5.27v2.966a.326.326 0 0 1 -.5.282z" transform="translate(-2575.186 -1170.364)"/><path d="m2513.673 1235.368h-.229a1.647 1.647 0 0 1 -1.644-1.644v-.968a.16.16 0 0 1 .156-.156h3.2a.16.16 0 0 1 .156.156v.968a1.632 1.632 0 0 1 -1.639 1.644zm-1.561-2.456v.812a1.335 1.335 0 0 0 1.332 1.332h.229a1.334 1.334 0 0 0 1.332-1.332v-.812z" transform="translate(-2462.476 -1171.601)"/><path d="m2527.356 1263.688a.161.161 0 0 1 -.156-.156v-1.176a.156.156 0 0 1 .312 0v1.176a.16.16 0 0 1 -.156.156z" transform="translate(-2476.273 -1198.12)"/><path d="m2521.19 1273.812h-1.634a.156.156 0 0 1 0-.312h1.634a.156.156 0 1 1 0 .312z" transform="translate(-2469.285 -1208.245)"/><path d="m2520.082 1219.767h-.146a.933.933 0 0 1 -.937-.937v-1.894a.933.933 0 0 1 .937-.936h.146a.933.933 0 0 1 .937.936v1.894a.933.933 0 0 1 -.937.937z" transform="translate(-2468.926 -1156.728)"/><path d="m2419.551 1226.945-.01.01a.59.59 0 0 0 .125.822l.958.77a.6.6 0 0 0 .833-.052l.011-.01a.575.575 0 0 1 .821-.031l.864.78a.549.549 0 0 1 0 .853 2.508 2.508 0 0 1 -3.049-.375l-1.457-1.176a2.531 2.531 0 0 1 -1.01-2.914.541.541 0 0 1 .833-.177l.947.687a.588.588 0 0 1 .134.813z" transform="translate(-2377.969 -1165.083)"/><path d="m2446.561 1231.794a.158.158 0 0 1 -.156-.146 1.362 1.362 0 0 0 -1.447-1.27.167.167 0 0 1 -.166-.146.159.159 0 0 1 .145-.167 1.676 1.676 0 0 1 1.78 1.561.155.155 0 0 1 -.156.167z" transform="translate(-2402.44 -1169.328)"/><path d="m2446.821 1222.222a.158.158 0 0 1 -.156-.146 2.367 2.367 0 0 0 -2.507-2.206.169.169 0 0 1 -.167-.146.16.16 0 0 1 .146-.167 2.7 2.7 0 0 1 1.936.656 2.657 2.657 0 0 1 .906 1.831.154.154 0 0 1 -.156.177z" transform="translate(-2401.722 -1159.913)"/></g><circle cx="80.292" cy="4.547" fill="none" r="1.082" stroke="#ffcf2d" stroke-width="5"/><circle cx="84.715" cy="4.547" fill="none" r="1.082" stroke="#ffcf2d" stroke-width="5"/><circle cx="89.147" cy="4.547" fill="none" r="1.082" stroke="#ffcf2d" stroke-width="5"/></g><path d="m2228.892 1005.039h-57.233a3.339 3.339 0 0 1 -3.159-3.491v-33.858a3.338 3.338 0 0 1 3.159-3.491h57.233a3.339 3.339 0 0 1 3.159 3.491v33.858a3.339 3.339 0 0 1 -3.159 3.491z" fill="#ffda75" transform="translate(-2162.566 -940.237)"/><g fill="none"><path d="m2190.822 979.295h-21.155a1.234 1.234 0 0 1 -1.167-1.295v-12.51a1.234 1.234 0 0 1 1.168-1.29h21.155a1.234 1.234 0 0 1 1.167 1.29v12.51a1.234 1.234 0 0 1 -1.168 1.295z" stroke="#ffda75" transform="translate(-2095.885 -940.237)"/><path d="m2190.822 979.295h-21.155a1.234 1.234 0 0 1 -1.167-1.295v-12.51a1.234 1.234 0 0 1 1.168-1.29h21.155a1.234 1.234 0 0 1 1.167 1.29v12.51a1.234 1.234 0 0 1 -1.168 1.295z" stroke="#ffda75" transform="translate(-2095.885 -923.041)"/><path d="m191.486 269.032h28.474" opacity=".1" stroke="#000" stroke-linecap="round" stroke-width="3" transform="translate(-156.369 -229.211)"/><path d="m191.486 269.032h23.706" opacity=".1" stroke="#000" stroke-linecap="round" stroke-width="3" transform="translate(-156.369 -224.651)"/><g opacity=".22" stroke="#707070"><circle cx="20.124" cy="42.398" r="10.394" stroke="none"/><circle cx="20.124" cy="42.398" fill="none" r="9.894"/></g><g opacity=".22" stroke="#707070"><circle cx="20.123" cy="42.397" r="4.724" stroke="none"/><circle cx="20.123" cy="42.397" fill="none" r="4.224"/></g></g><path d="m4.378 6.82a.765.765 0 0 0 .041-.12c.013-.046.024-.1.033-.155s.017-.118.023-.181.008-.13.008-.2 0-.128-.008-.19-.013-.12-.023-.175-.021-.106-.033-.15a.781.781 0 0 0 -.041-.114h-2.938v-5.411a.648.648 0 0 0 -.12-.052 1.2 1.2 0 0 0 -.159-.039q-.089-.016-.198-.024t-.238-.009q-.125 0-.234.009t-.2.025a1.322 1.322 0 0 0 -.164.038.74.74 0 0 0 -.127.052v6.7zm1.183-.086a.74.74 0 0 0 .127.052 1.322 1.322 0 0 0 .164.039q.091.016.2.025t.234.009q.129 0 .238-.009t.2-.025a1.2 1.2 0 0 0 .159-.039.648.648 0 0 0 .117-.052v-6.61a.648.648 0 0 0 -.12-.052 1.2 1.2 0 0 0 -.158-.039q-.089-.016-.2-.025t-.236-.008q-.125 0-.234.009t-.2.025a1.322 1.322 0 0 0 -.164.039.74.74 0 0 0 -.127.052zm5.5-.992q-.036-.247-.077-.488t-.084-.474q-.049-.233-.107-.458t-.126-.44l-1.195-3.748a.864.864 0 0 0 -.137-.058 1.292 1.292 0 0 0 -.169-.041 2.01 2.01 0 0 0 -.2-.026c-.079-.009-.16-.009-.248-.009s-.179 0-.257.009a2.126 2.126 0 0 0 -.214.026 1.159 1.159 0 0 0 -.169.042.563.563 0 0 0 -.123.057l2.222 6.648c.05.014.108.027.172.039s.134.022.21.03.155.015.238.019.17.007.258.007.17 0 .252-.007.161-.011.235-.019.145-.018.209-.03.122-.025.172-.039l2.241-6.648a.8.8 0 0 0 -.127-.057 1.1 1.1 0 0 0 -.157-.042 1.772 1.772 0 0 0 -.2-.026c-.069-.009-.15-.009-.24-.009s-.157 0-.229.007a1.974 1.974 0 0 0 -.2.024 1.181 1.181 0 0 0 -.169.041.716.716 0 0 0 -.138.061l-1.172 3.73c-.045.145-.087.3-.125.448s-.074.309-.106.467-.061.318-.088.479-.05.323-.072.485zm4.044-5.7v6.778h4.569a.592.592 0 0 0 .039-.109 1.4 1.4 0 0 0 .03-.147c.008-.054.015-.113.019-.174s.007-.125.007-.189 0-.128-.007-.188-.011-.118-.019-.171a1.343 1.343 0 0 0 -.03-.144.6.6 0 0 0 -.039-.107h-3.144v-1.591h2.833a.72.72 0 0 0 .039-.111 1.391 1.391 0 0 0 .03-.143c.008-.052.015-.108.019-.166s.007-.119.007-.181 0-.126-.007-.185-.011-.114-.019-.165a1.334 1.334 0 0 0 -.03-.14.729.729 0 0 0 -.039-.11h-2.833v-1.54h3.07a.6.6 0 0 0 .039-.107 1.342 1.342 0 0 0 .03-.144c.008-.053.015-.111.019-.171s.012-.124.012-.188 0-.128-.007-.188-.014-.118-.022-.171a1.342 1.342 0 0 0 -.03-.144.6.6 0 0 0 -.041-.108z" fill="#fff" opacity=".51" transform="translate(.748 2.376)"/><circle cx="26.172" cy="5.526" fill="#fff" opacity=".43" r="2.858"/><g clip-path="url(#c)" transform="translate(72.615 23.755)"><path d="m0 0h2.153v1.9h-2.153z" fill="#f0f0f0" transform="translate(19.761 31.053)"/><path d="m720.581 398.109-.36 1.36 1.366 6.411a16.026 16.026 0 0 1 -11.172-.574l1.067-4.472.035-2.426.116-8 .029-.015h.006l2.717-1.4 4.688-.117 3.5 1.7-.027.1z" fill="#3f3d56" transform="translate(-701.126 -377.849)"/><path d="m894.457 634.467a1.145 1.145 0 0 1 .306-1.729l-.761-4 1.952.813.423 3.671a1.151 1.151 0 0 1 -1.92 1.242z" fill="#9e616a" transform="translate(-873.085 -602.518)"/><path d="m872.073 415.334.5-.163a3.823 3.823 0 0 1 1.437 3.484s.06 1.275 0 2.124c-.065.974.809 10.648.809 10.648h-2.831l-1.213-8.761z" fill="#3f3d56" transform="translate(-851.333 -402.474)"/><path d="m769.166 271.769a3.25 3.25 0 1 1 -3.25-3.25 3.242 3.242 0 0 1 3.25 3.234z" fill="#9e616a" transform="translate(-750.068 -265.111)"/><path d="m760.775 237.881c.381-.819 1.117-.657 1.762-.379.816-.181 1.592-.723 2.471-.4.866 1.259 3.773.889 3.155 2.939 0 .491.925.205.763 1.01.49 1.549-1.769 4.481-3.066 3.864.321-.588 1.054-1.923-.058-2.056-2.391 2.225-.247-4.237-3.251-2.357-.995.908-2.357-1.71-1.776-2.621z" fill="#2f2e41" transform="translate(-748.166 -235.588)"/><path d="m764.639 547.986-5.188-1.027 1.33-6.716a14.457 14.457 0 0 0 5.188 1.027 7.6 7.6 0 0 0 -1.33 6.716z" fill="#e4e4e4" transform="translate(-747.056 -519.625)"/><path d="m750.3 554.215-5.187-1.027c-.426-3.043-.039-5.333 1.33-6.716a14.453 14.453 0 0 0 5.188 1.027 18.5 18.5 0 0 0 -1.331 6.716z" fill="#6c63ff" transform="translate(-733.47 -525.46)"/><path d="m706.9 576.609a1.145 1.145 0 0 0 -1.474-.953l-2.409-3.279-.733 1.983 2.4 2.81a1.151 1.151 0 0 0 2.216-.561z" fill="#9e616a" transform="translate(-693.514 -549.724)"/><path d="m660.321 411.412-.436-.295a3.628 3.628 0 0 0 -3.131 2.653s-.391 1.448-.57 2.28c-.092.428-1.323 4.56-1.323 4.56l4.173 4.56 1.14-1.71-1.14-2.85z" fill="#3f3d56" transform="translate(-649.09 -398.678)"/></g></g><path d="m120.955 207.877c-26.281-.59-55.4-6.027-78.421-26.531-23-20.657-39.748-56.208-29.551-81.938 10.179-25.577 47.287-41.18 84.384-51.357 37.114-10.329 74.218-15.233 93.14-.039 18.779 15.021 19.539 50.161 17.16 78.866-2.521 28.533-8.181 50.633-22.578 63.907-13.72 12.491-35.2 17.142-59.626 17.142q-2.24.001-4.508-.05z" fill="#fff" opacity=".08" transform="translate(43 -35)"/><path d="m0 0h330v180h-330z" fill="none"/></svg>