<svg id="cast_for_education_black_24dp" xmlns="http://www.w3.org/2000/svg" width="40" height="40" viewBox="0 0 40 40">
  <path id="Path_10202" data-name="Path 10202" d="M0,0H40V40H0Z" fill="none"/>
  <path id="Path_10203" data-name="Path 10203" d="M34.142,3H4.314A3.3,3.3,0,0,0,1,6.263v4.895H4.314V6.263H34.142V29.105h-11.6v3.263h11.6a3.3,3.3,0,0,0,3.314-3.263V6.263A3.3,3.3,0,0,0,34.142,3ZM1,27.474v4.895H5.971A4.927,4.927,0,0,0,1,27.474Zm0-6.526v3.263a8.225,8.225,0,0,1,8.285,8.158H12.6A11.5,11.5,0,0,0,1,20.947Zm0-6.526v3.263A14.8,14.8,0,0,1,15.914,32.368h3.314A18.09,18.09,0,0,0,1,14.421ZM17.571,16.2v3.263l5.8,3.116,5.8-3.116V16.2l-5.8,3.116Zm5.8-8.3-9.114,4.895,9.114,4.895,9.114-4.895Z" transform="translate(-0.228 2.316)" fill="#ba1f00"/>
</svg>
